<svg id="Capa_1" data-name="Capa 1" xmlns="http://www.w3.org/2000/svg" viewBox="0 0 34.02 34.02"><title>twitter</title><path d="M154.56,346.12h-34v-34h34Zm-8.47-21.47a7,7,0,0,1-2,.55,3.5,3.5,0,0,0,1.54-1.93,7,7,0,0,1-2.22.85,3.5,3.5,0,0,0-6,3.19,9.92,9.92,0,0,1-7.2-3.65,3.5,3.5,0,0,0,1.08,4.67,3.49,3.49,0,0,1-1.58-.44v0a3.5,3.5,0,0,0,2.8,3.43,3.41,3.41,0,0,1-.92.12,3.47,3.47,0,0,1-.66-.06,3.5,3.5,0,0,0,3.26,2.43,7,7,0,0,1-4.34,1.5,7.13,7.13,0,0,1-.83,0,9.94,9.94,0,0,0,15.3-8.38c0-.15,0-.3,0-.45a7.08,7.08,0,0,0,1.74-1.81" transform="translate(-120.55 -312.1)" style="fill:#fff"/></svg>